<svg width="37" height="40" viewBox="0 0 37 40" fill="none" xmlns="http://www.w3.org/2000/svg">
<path d="M36.1248 1.93773V29.95C36.1248 30.3661 35.9166 30.7476 35.5523 30.973L24.9908 37.4733C24.5918 37.716 24.0716 37.4387 24.0716 36.9534V20.0001C20.0656 20.0001 1.12732 22.4963 0.60713 37.4387C0.60713 37.6468 0.589453 37.8544 0.589453 38.0625H0V10.0329C0 9.61678 0.208149 9.23566 0.572138 9.01031L11.134 2.50995C11.5329 2.26729 12.0531 2.54457 12.0531 3.0299V20.0001C16.0765 20.0001 35.0148 17.5042 35.5176 2.56188C35.5176 2.35383 35.535 2.14578 35.535 1.93773H36.1248Z" fill="#C0C0C0"/>
<path d="M23.4105 14.4133C30.1033 12.9907 34.5068 6.65923 33.6358 1.20898e-05L23.6194 2.12907C22.1254 2.44661 21.1675 3.91793 21.4841 5.40771L23.3989 14.4158L23.4105 14.4133Z" fill="#5F5F5F"/>
<path d="M12.7145 25.5867C6.02166 27.0093 1.61822 33.3408 2.4892 40L12.5056 37.8709C13.9996 37.5534 14.9575 36.0821 14.6409 34.5923L12.7261 25.5842L12.7145 25.5867Z" fill="#5F5F5F"/>
</svg>
